<svg width="200" height="200" viewBox="0 0 200 200" xmlns="http://www.w3.org/2000/svg">
  <!-- Background circle -->
  <circle cx="100" cy="100" r="95" fill="#87CEEB" stroke="#4682B4" stroke-width="5"/>
  
  <!-- Sun -->
  <circle cx="150" cy="50" r="15" fill="#FFD700"/>
  <path d="M150 30 L150 20 M170 50 L180 50 M165 35 L172 28 M135 35 L128 28 M165 65 L172 72 M135 65 L128 72" stroke="#FFD700" stroke-width="2"/>
  
  <!-- Clouds -->
  <ellipse cx="60" cy="40" rx="12" ry="8" fill="white" opacity="0.8"/>
  <ellipse cx="70" cy="35" rx="10" ry="6" fill="white" opacity="0.8"/>
  <ellipse cx="50" cy="35" rx="8" ry="5" fill="white" opacity="0.8"/>
  
  <!-- Ground -->
  <ellipse cx="100" cy="180" rx="90" ry="20" fill="#8B4513"/>
  
  <!-- Corn stalks -->
  <!-- Corn stalk 1 -->
  <rect x="50" y="120" width="6" height="50" fill="#228B22"/>
  <rect x="48" y="110" width="10" height="8" rx="3" fill="#FFD700"/>
  <rect x="47" y="102" width="12" height="6" rx="2" fill="#32CD32"/>
  
  <!-- Corn stalk 2 -->
  <rect x="70" y="115" width="6" height="55" fill="#228B22"/>
  <rect x="68" y="105" width="10" height="8" rx="3" fill="#FFD700"/>
  <rect x="67" y="97" width="12" height="6" rx="2" fill="#32CD32"/>
  
  <!-- Corn stalk 3 (center, taller) -->
  <rect x="95" y="105" width="8" height="65" fill="#228B22"/>
  <rect x="92" y="95" width="14" height="10" rx="4" fill="#FFD700"/>
  <rect x="91" y="85" width="16" height="8" rx="3" fill="#32CD32"/>
  
  <!-- Corn stalk 4 -->
  <rect x="120" y="118" width="6" height="52" fill="#228B22"/>
  <rect x="118" y="108" width="10" height="8" rx="3" fill="#FFD700"/>
  <rect x="117" y="100" width="12" height="6" rx="2" fill="#32CD32"/>
  
  <!-- Corn stalk 5 -->
  <rect x="140" y="125" width="6" height="45" fill="#228B22"/>
  <rect x="138" y="115" width="10" height="8" rx="3" fill="#FFD700"/>
  <rect x="137" y="107" width="12" height="6" rx="2" fill="#32CD32"/>
  
  <!-- Barn/Farmhouse in background -->
  <rect x="20" y="140" width="25" height="20" fill="#8B4513"/>
  <polygon points="20,140 32.5,125 45,140" fill="#CD853F"/>
  <rect x="26" y="150" width="4" height="10" fill="#654321"/>
  <rect x="35" y="145" width="6" height="6" fill="#87CEEB"/>
  
  <!-- Tractor silhouette -->
  <rect x="160" y="155" width="15" height="8" fill="#FF6347"/>
  <circle cx="165" cy="167" r="4" fill="#2F4F4F"/>
  <circle cx="172" cy="167" r="3" fill="#2F4F4F"/>
  <rect x="174" y="160" width="3" height="5" fill="#FF6347"/>
  
  <!-- Farm fence -->
  <rect x="15" y="165" width="2" height="10" fill="#8B4513"/>
  <rect x="25" y="165" width="2" height="10" fill="#8B4513"/>
  <rect x="35" y="165" width="2" height="10" fill="#8B4513"/>
  <rect x="16" y="168" width="22" height="1" fill="#8B4513"/>
  <rect x="16" y="172" width="22" height="1" fill="#8B4513"/>
  
  <!-- Title text -->
  <text x="100" y="195" font-family="serif" font-size="12" font-weight="bold" text-anchor="middle" fill="#2F4F4F">FAZENDA AGRO</text>
</svg>